<svg xmlns="http://www.w3.org/2000/svg" width="451" height="265" fill="none"><mask id="a" width="50" height="45" x="346" y="118" maskUnits="userSpaceOnUse"><path fill="#fff" d="M381.573 162.235L347 142.274l13.972-24.201 34.573 19.961-13.972 24.201z"/></mask><g mask="url(#a)"><path fill="#FF7750" fill-rule="evenodd" d="M387.167 151.232c-3.616.624-12.041 1.648-21.432-1.362-7.39-2.369-12.045-6.168-14.369-8.378l2.15-13.014c3.321 2.355 9.111 5.838 17.405 8.032 8.426 2.23 15.796 2.165 20.254 1.843l-4.008 12.879z" clip-rule="evenodd"/></g><mask id="b" width="72" height="65" x="227" y="200" maskUnits="userSpaceOnUse"><path fill="#fff" d="M298.244 200.201l.037 64.497-70.675-.041-.037-64.497 70.675.041z"/></mask><g mask="url(#b)"><path fill="#3FD8FF" fill-rule="evenodd" d="M255.345 212.994c-.077 3.374.167 8.53 1.979 14.277 1.454 4.618 3.727 11.833 8.377 13.732 5.399 2.208 13.32-3.053 18.56-13.455l14.015 22.552c-3.372 3.665-13.9 14.153-29.103 14.568-16.649.455-37.487-11.211-41.063-32.399-2.587-15.338 5.099-28.397 7.46-32.105 6.59 4.277 13.185 8.554 19.775 12.83z" clip-rule="evenodd"/></g><path fill="#189BBD" fill-rule="evenodd" d="M276.924 253.852c10.997 4.059 20.224-3.007 21.434-3.931-4.653-7.629-9.509-14.954-14.161-22.583-.288.945-3.735 8.543-10.4 11.954-5.602 2.867-10.887-.824-11.899-1.451.646 1.656 4.595 12.16 15.026 16.011z" clip-rule="evenodd"/><path fill="#FFE7A5" fill-rule="evenodd" d="M92.818 196.52c-5.257-3.484-10.511-6.972-15.769-10.455.008 2.706-.354 12.981-9.68 22.182-9.69 9.566-22.36 11.366-25.451 11.731 5.053 2.667 10.103 5.337 15.152 8.005 5.338-2.859 11.632-6.777 17.99-12.064 8.352-6.942 14.011-13.913 17.758-19.399z" clip-rule="evenodd"/><path fill="#3FD8FF" d="M215.591 37.295c.894-4.819-10.001-15.689-18.847-15.72-8.845-.033-15.154 10.749-15.128 17.945.026 7.196 7.807 7.066 16.681 1.743 8.875-5.322 16.4.851 17.294-3.968z"/><path fill="#FFE7A5" d="M260.581 105.037c2.497-6.893 6.403-1.819 12.215-9.115s13.136-.005 11.316 10.317c-1.82 10.322-9.957 13.272-15.309 12.328-5.352-.944-10.719-6.638-8.222-13.53z"/><path fill="#A8AEF0" fill-rule="evenodd" d="M352.174 22.03c5.724-4.022 8.629-8.586 9.983-11.14L356.325 0c-2.179 2.941-6.168 7.525-12.734 11.631-6.668 4.17-13.115 6.046-17.099 6.929l7.409 10.286c3.343-.399 11-1.706 18.273-6.816z" clip-rule="evenodd"/><mask id="c" width="57" height="53" x="0" y="0" maskUnits="userSpaceOnUse"><path fill="#fff" d="M.41 52.326V.428h56.48v51.898H.41z"/></mask><g mask="url(#c)"><path fill="#FF7750" fill-rule="evenodd" d="M34.702 42.012c.063-2.715-.13-6.864-1.575-11.487-1.16-3.716-2.974-9.52-6.689-11.046-4.313-1.774-10.646 2.463-14.838 10.836L.41 12.174C3.105 9.224 11.524.779 23.673.439 36.98.065 53.628 9.442 56.476 26.489c2.06 12.341-4.088 22.853-5.977 25.837L34.702 42.012z" clip-rule="evenodd"/></g><path fill="#CD4C27" fill-rule="evenodd" d="M17.366 9.25C8.46 6.033.981 11.645 0 12.379c3.766 6.052 7.868 12.113 11.634 18.165.233-.75 2.882-6.598 8.258-9.74 4.31-2.52 8.82.648 9.64 1.146-.523-1.314-3.717-9.65-12.166-12.7z" clip-rule="evenodd"/><path fill="#A8AEF0" fill-rule="evenodd" d="M126.916 106.489c9.336 5.3 18.671 10.598 28.005 15.898-1.205 3.05-2.413 6.1-3.62 9.15l-27.023-11.869 2.638-13.179z" clip-rule="evenodd"/><path fill="#A8AEF0" d="M444.051 224.891c11.88-2.966 6.786-17.999-2.3-23.245-9.086-5.246-19.945-.893-25.943 6.939-5.997 7.832-5.004 16.607 4.082 21.853 9.087 5.246 12.282-2.581 24.161-5.547z"/></svg>