<svg xmlns="http://www.w3.org/2000/svg" width="419" height="262" fill="none"><mask id="a" width="95" height="93" x="114" y="174" maskUnits="userSpaceOnUse"><path fill="#fff" d="M114.635 225.537l37.237-51.482 56.339 41.116-37.237 51.482-56.339-41.116z"/></mask><g mask="url(#a)"><path fill="#FFE7A5" fill-rule="evenodd" d="M156.242 240.268c2.01-2.648 4.795-6.903 6.671-12.541 1.509-4.53 3.864-11.609 1.254-15.826-3.031-4.9-12.387-5.307-22.576-.053l1.853-26.142c4.808-.964 19.263-3.212 31.627 5.295 13.54 9.315 23.418 30.736 14.027 49.72-6.799 13.742-20.474 19.694-24.499 21.279-2.785-7.243-5.573-14.489-8.357-21.732z" clip-rule="evenodd"/></g><path fill="#D3AD45" fill-rule="evenodd" d="M162.634 195.124c-6.425-9.631-17.866-9.357-19.365-9.324-.697 8.792-1.057 17.459-1.755 26.251.776-.587 7.915-4.645 15.201-3.492 6.124.969 8.206 6.986 8.65 8.075.443-1.697 3.363-12.374-2.731-21.51z" clip-rule="evenodd"/><path fill="#FF7750" fill-rule="evenodd" d="M347.864 200.66c6.991 1.597 8.094 2.154 15.084 3.751l29.005-35.787c-9.816 2.262-13.745 5.562-23.562 7.824l-20.527 24.212z" clip-rule="evenodd"/><mask id="b" width="49" height="35" x="46" y="111" maskUnits="userSpaceOnUse"><path fill="#fff" d="M46.822 111.244h47.819v33.871H46.822v-33.871z"/></mask><g mask="url(#b)"><path fill="#FF7750" fill-rule="evenodd" d="M47.608 126.184c3.377-2.846 11.503-9.027 23.048-11.558 9.084-1.992 16.188-.826 19.922.086l5.564 14.963c-4.855-.459-12.947-.606-22.865 2.117-10.075 2.765-17.682 7.3-22.113 10.34a41017.15 41017.15 0 0 0-3.556-15.948z" clip-rule="evenodd"/></g><path fill="#3FD8FF" d="M272.345 130.733c1.064-5.733-11.899-18.666-22.423-18.704-10.524-.039-18.03 12.789-17.999 21.351.031 8.562 9.288 8.407 19.847 2.074 10.558-6.332 19.511 1.013 20.575-4.721z"/><path fill="#A8AEF0" d="M13.458 223.005c8.17 1.427 3.283 6.775 12.553 11.817 9.27 5.042 2.587 14.633-9.27 14.633C4.885 249.455 0 240.97 0 234.822s5.289-13.245 13.458-11.817z"/><path fill="#3FD8FF" fill-rule="evenodd" d="M396.514 23.618L418.36 36.02c-.94 2.38-1.883 4.758-2.824 7.138-7.026-3.087-14.053-6.172-21.08-9.26l2.058-10.28z" clip-rule="evenodd"/><path fill="#FFE7A5" d="M95.349 44.191c6.38 6.604 14.235-2.342 14.235-10.21 0-7.87-6.9-13.29-14.235-14.248-7.336-.958-12.663 2.977-12.663 10.846s6.282 7.009 12.663 13.612z"/><path fill="#A8AEF0" fill-rule="evenodd" d="M248.917 8.14c.285 2.623 1 6.603 2.997 10.9 1.603 3.449 4.11 8.842 7.925 9.889 4.437 1.216 10.079-3.6 13.108-12.155 4.407 5.405 8.814 10.81 13.222 16.212-2.256 3.156-9.401 12.267-21.214 13.99-12.937 1.883-30.373-5.25-35.317-21.37C226.062 13.94 230.729 3.098 232.191 0l16.726 8.14z" clip-rule="evenodd"/><path fill="#7680ED" fill-rule="evenodd" d="M256.079 26.1c.677 1.24 5.094 9.046 13.703 11.093 9.075 2.157 15.439-3.831 16.296-4.668L272.741 15.89c-.129.766-1.358 7.382-6.917 10.185-4.572 2.306-8.882.424-9.745.025z" clip-rule="evenodd"/></svg>