<svg version="1.1" id="Layer_1" xmlns="http://www.w3.org/2000/svg" x="0" y="0" viewBox="0 0 135.9 138.3" xml:space="preserve"><style>.st5{opacity:.25;fill:#fb7f6b;enable-background:new}</style><path d="M25.7 2.2c-4.5 0-8.1 3.6-8.1 8.1v4.9h81v-4.9c0-4.5-3.6-8.1-8.1-8.1H25.7zm-8.1 19.5v90.7h81V21.7h-81zm0 97.2v11.3c0 4.5 3.6 8.1 8.1 8.1h64.8c4.5 0 8.1-3.6 8.1-8.1v-11.3h-81zm29.1 6.5h22.7c1.8 0 3.2 1.4 3.2 3.2 0 1.8-1.4 3.2-3.2 3.2H46.7c-1.8 0-3.2-1.4-3.2-3.2 0-1.8 1.5-3.2 3.2-3.2z" fill="#ffefec"/><path d="M67.2 70.3c0 5-4.1 9.1-9.1 9.1S49 75.3 49 70.3s4.1-9.1 9.1-9.1 9.1 4 9.1 9.1" fill="#ff6542"/><linearGradient id="SVGID_1_" gradientUnits="userSpaceOnUse" x1="26.368" y1="2.44" x2="89.768" y2="2.44" gradientTransform="matrix(1 0 0 -1 0 72.74)"><stop offset="0" stop-color="#ff6542"/><stop offset="1" stop-color="#ffb4a3"/></linearGradient><path d="M35.3 79.5c5.3 4.5 13.6 9.9 22.7 9.9 15.5 0 28.7-15.3 31.7-19.1-1.3-1.7-4.5-5.4-9-9.2-5.3-4.5-13.6-9.9-22.7-9.9-15.5 0-28.7 15.3-31.7 19.1 1.4 1.6 4.6 5.4 9 9.2zm22.8-21.2c6.6 0 12 5.4 12 12s-5.4 12-12 12-12-5.4-12-12 5.4-12 12-12z" fill="url(#SVGID_1_)"/><linearGradient id="SVGID_2_" gradientUnits="userSpaceOnUse" x1="38.642" y1="-33.61" x2="55.684" y2="-33.61" gradientTransform="matrix(1 0 0 -1 0 72.74)"><stop offset="0" stop-color="#ff6542"/><stop offset="1" stop-color="#ffb4a3"/></linearGradient><path d="M55.7 106.2l-17 11.5V95l17 11.2z" fill="url(#SVGID_2_)"/><linearGradient id="SVGID_3_" gradientUnits="userSpaceOnUse" x1="116.3" y1="62.94" x2="135.966" y2="62.94" gradientTransform="matrix(1 0 0 -1 0 72.74)"><stop offset="0" stop-color="#ff6542"/><stop offset="1" stop-color="#ffb4a3"/></linearGradient><circle cx="126.1" cy="9.8" r="9.8" fill="url(#SVGID_3_)"/><circle class="st5" cx="46.2" cy="21.2" r="6.2"/><circle class="st5" cx="6.2" cy="27.2" r="6.2"/><circle cx="68.3" cy="7.7" r="1.9" fill="#cc4032"/></svg>