<svg version="1.1" id="Layer_1" xmlns="http://www.w3.org/2000/svg" x="0" y="0" viewBox="0 0 104.6 138.7" xml:space="preserve"><style>.st4{fill-rule:evenodd;clip-rule:evenodd;fill:#fb7f6b}</style><linearGradient id="SVGID_1_" gradientUnits="userSpaceOnUse" x1="16.335" y1="54.163" x2="38.211" y2="54.163"><stop offset="0" stop-color="#ff6542"/><stop offset="1" stop-color="#ffb4a3"/></linearGradient><path d="M16.3 54.2c0 6 4.9 10.9 10.9 10.9s10.9-4.9 10.9-10.9-4.9-10.9-10.9-10.9c-6-.1-10.9 4.8-10.9 10.9z" fill="url(#SVGID_1_)"/><linearGradient id="SVGID_2_" gradientUnits="userSpaceOnUse" x1="49.929" y1="60.413" x2="68.679" y2="60.413"><stop offset="0" stop-color="#ff6542"/><stop offset="1" stop-color="#ffb4a3"/></linearGradient><path d="M59.3 69.8c5.2 0 9.4-4.2 9.4-9.4S64.5 51 59.3 51s-9.4 4.2-9.4 9.4 4.2 9.4 9.4 9.4z" fill="url(#SVGID_2_)"/><linearGradient id="SVGID_3_" gradientUnits="userSpaceOnUse" x1="80.397" y1="65.101" x2="96.022" y2="65.101"><stop offset="0" stop-color="#ff6542"/><stop offset="1" stop-color="#ffb4a3"/></linearGradient><path d="M88.2 72.9c4.3 0 7.8-3.5 7.8-7.8s-3.5-7.8-7.8-7.8-7.8 3.5-7.8 7.8 3.5 7.8 7.8 7.8z" fill="url(#SVGID_3_)"/><path d="M36.2 65c-2.4 2-5.5 3.2-8.9 3.2-3.5 0-6.8-1.3-9.3-3.5C6 68.5 4.4 80.6 4.6 90.2c0 1.7 1.5 3 3.3 3h38.8c1.7 0 3.2-1.3 3.2-3 .2-9.4-2.2-21.1-13.7-25.2zM15.8 90.1h-1.6v-7.6c0-.4.3-.8.8-.8s.8.3.8.8v7.6zm25.1 0h-1.6v-7.6c0-.4.3-.8.8-.8s.8.3.8.8v7.6zm26.8-20.5c-2.2 2-5.2 3.3-8.4 3.3-3.3 0-6.3-1.3-8.5-3.4-.8.3-1.5.6-2.1 1 3.1 4.9 4.6 11.5 4.4 19.8 0 1.1-.3 2.1-.9 2.9h23.2c1.4 0 2.7-1.1 2.7-2.5.1-7.8-1.4-17.5-10.4-21.1zm1.6 20.5h-1.6v-6c0-.4.3-.8.8-.8.4 0 .8.3.8.8v6zM96 72.8c-2 2-4.7 3.3-7.8 3.3-3.1 0-5.9-1.3-7.9-3.4-1 .4-1.9.9-2.7 1.5 2.5 4.2 3.7 9.7 3.5 16.6 0 .9-.2 1.7-.6 2.5h21.7c1.2 0 2.3-1 2.4-2.2.1-6.8-1.1-15.1-8.6-18.3zm2.2 17.3h-1.6v-4.4c0-.4.3-.8.8-.8s.8.3.8.8v4.4z" fill="#ff947b"/><path class="st4" d="M43.7 127.2l-17 11.5V116l17 11.2z"/><circle cx="64.2" cy="30.8" r="9.8" fill-rule="evenodd" clip-rule="evenodd" fill="#fcb0a4"/><circle class="st4" cx="46.2" cy="6.2" r="6.2"/><circle cx="6.2" cy="12.2" r="6.2" fill-rule="evenodd" clip-rule="evenodd" fill="#efcabf"/></svg>