<svg version="1.1" id="Layer_1" xmlns="http://www.w3.org/2000/svg" xmlns:xlink="http://www.w3.org/1999/xlink" x="0" y="0" viewBox="0 0 195.1 158" xml:space="preserve"><style>.st3,.st4{fill-rule:evenodd;clip-rule:evenodd;fill:#fb7f6b}.st4{opacity:.45}</style><path d="M134.3 51.9H67.2c-5.3 0-9.7 4.4-9.7 9.7v50.8c0 5.3 4.4 9.7 9.7 9.7h67.2c5.3 0 9.7-4.4 9.7-9.7V61.6c-.1-5.4-4.4-9.7-9.8-9.7zm-28.9 9.7c5.6 0 10.2 4.6 10.2 10.2S111 82 105.4 82s-10.2-4.6-10.2-10.2 4.6-10.2 10.2-10.2zm-38.2 53.3c-1.4 0-2.6-1.1-2.6-2.6V111l28.6-18.8 28.2 22.7H67.2zm69.7-2.5c0 1.4-1.1 2.6-2.6 2.6h-1.5L108 95l16-10.3 12.9 6.6v21.1z" display="none" fill="#ffefec"/><linearGradient id="SVGID_1_" gradientUnits="userSpaceOnUse" x1="91.358" y1="121.466" x2="176.196" y2="121.466"><stop offset="0" stop-color="#ff6542"/><stop offset="1" stop-color="#ffb4a3"/></linearGradient><path d="M153.1 84.9c-14.4 0-19.3 12.8-19.3 12.8s-4.9-12.8-19.3-12.8S91.4 98.7 91.4 110c0 19 42.4 48 42.4 48s42.4-29 42.4-48c0-11.3-8.7-25.1-23.1-25.1z" fill="url(#SVGID_1_)"/><defs><path id="SVGID_2_" d="M173.5 0H0v112.1h47.3V42.4l96.8-2z"/></defs><clipPath id="SVGID_3_"><use xlink:href="#SVGID_2_" overflow="visible"/></clipPath><path d="M104.3 21.9H37.2c-5.3 0-9.7 4.4-9.7 9.7v50.8c0 5.3 4.4 9.7 9.7 9.7h67.2c5.3 0 9.7-4.4 9.7-9.7V31.6c-.1-5.4-4.4-9.7-9.8-9.7zm-28.9 9.7c5.6 0 10.2 4.6 10.2 10.2S81 52 75.4 52s-10.2-4.6-10.2-10.2 4.6-10.2 10.2-10.2zM37.2 84.9c-1.4 0-2.6-1.1-2.6-2.6V81l28.6-18.8 28.2 22.7H37.2zm69.7-2.5c0 1.4-1.1 2.6-2.6 2.6h-1.5L78 65l16-10.3 12.9 6.6v21.1z" clip-path="url(#SVGID_3_)" fill="#ffefec"/><circle class="st3" cx="185.2" cy="59.2" r="9.8"/><circle class="st3" cx="167.3" cy="34.6" r="6.2"/><circle class="st3" cx="127.3" cy="40.6" r="6.2"/><circle class="st3" cx="148.2" cy="67.4" r="3.1"/><circle class="st4" cx="47.3" cy="94.6" r="6.2"/><path d="M134.3 51.9H67.2c-5.3 0-9.7 4.4-9.7 9.7v50.8c0 5.3 4.4 9.7 9.7 9.7h67.2c5.3 0 9.7-4.4 9.7-9.7V61.6c-.1-5.4-4.4-9.7-9.8-9.7zm-28.9 9.7c5.6 0 10.2 4.6 10.2 10.2S111 82 105.4 82s-10.2-4.6-10.2-10.2 4.6-10.2 10.2-10.2zm-38.2 53.3c-1.4 0-2.6-1.1-2.6-2.6V111l28.6-18.8 28.2 22.7H67.2zm69.7-2.5c0 1.4-1.1 2.6-2.6 2.6h-1.5L108 95l16-10.3 12.9 6.6v21.1z" fill="#ffefec"/><linearGradient id="SVGID_4_" gradientUnits="userSpaceOnUse" x1="91.358" y1="121.466" x2="176.196" y2="121.466"><stop offset="0" stop-color="#ff6542"/><stop offset="1" stop-color="#ffb4a3"/></linearGradient><path d="M153.1 84.9c-14.4 0-19.3 12.8-19.3 12.8s-4.9-12.8-19.3-12.8S91.4 98.7 91.4 110c0 19 42.4 48 42.4 48s42.4-29 42.4-48c0-11.3-8.7-25.1-23.1-25.1z" fill="url(#SVGID_4_)"/><defs><path id="SVGID_5_" d="M173.5 0H0v112.1h47.3V42.4l96.8-2z"/></defs><clipPath id="SVGID_6_"><use xlink:href="#SVGID_5_" overflow="visible"/></clipPath><path d="M104.3 21.9H37.2c-5.3 0-9.7 4.4-9.7 9.7v50.8c0 5.3 4.4 9.7 9.7 9.7h67.2c5.3 0 9.7-4.4 9.7-9.7V31.6c-.1-5.4-4.4-9.7-9.8-9.7zm-28.9 9.7c5.6 0 10.2 4.6 10.2 10.2S81 52 75.4 52s-10.2-4.6-10.2-10.2 4.6-10.2 10.2-10.2zM37.2 84.9c-1.4 0-2.6-1.1-2.6-2.6V81l28.6-18.8 28.2 22.7H37.2zm69.7-2.5c0 1.4-1.1 2.6-2.6 2.6h-1.5L78 65l16-10.3 12.9 6.6v21.1z" clip-path="url(#SVGID_6_)" fill="#ffefec"/><circle class="st3" cx="185.2" cy="59.2" r="9.8"/><circle class="st3" cx="167.3" cy="34.6" r="6.2"/><circle class="st3" cx="127.3" cy="40.6" r="6.2"/><circle class="st3" cx="148.2" cy="67.4" r="3.1"/><circle class="st4" cx="47.3" cy="94.6" r="6.2"/></svg>