<svg id="d7d38a2f-893e-4570-bdfc-30e0e7e52a9c" data-name="Layer 1" xmlns="http://www.w3.org/2000/svg" viewBox="0 0 898.26 212.11"><defs><linearGradient id="87c80f1a-f7cd-4159-944f-ff0e2742f6d8" x1="212.69" y1="51.5" x2="45.56" y2="128.11" gradientUnits="userSpaceOnUse"><stop offset="0" stop-color="#f2632d"/><stop offset=".81" stop-color="#ef612b"/><stop offset="1" stop-color="#e0531d"/></linearGradient><linearGradient id="e73e9ee7-b8af-4fbb-aa1d-1d18c5c2b982" x1="37.23" y1="131.23" x2="171.6" y2="68.48" gradientUnits="userSpaceOnUse"><stop offset="0" stop-color="#f2632d"/><stop offset="1" stop-color="#e0531d"/></linearGradient></defs><path d="M331.5 108.4c11.2 9.4 14.4 19.7 10.1 31.4-4.1 11.1-14.4 17.9-27.8 17.9q-23.1.15-46.2 0c-10.4 0-14.7-4.2-14.7-14.4q-.15-32.85 0-65.6c0-9.8 4-14.1 13.7-14.3 15.2-.3 30.5-.6 45.7-.1 19.8.6 32.1 17.1 26.1 34.5a22.58 22.58 0 0 1-2.8 5.6 50.71 50.71 0 0 1-4.1 5zm-48.8 29.9c7.5 0 14.3.2 21.1-.1a8.71 8.71 0 0 0 8.8-8.6c.2-5.2-2.6-8.7-7.4-9.2-7.4-.7-14.9-.2-22.4-.2-.1 6.3-.1 11.9-.1 18.1zm0-36.6c6.6 0 12.8.3 19-.1 5.2-.3 8.2-3.9 8.3-9s-2.6-8.9-7.9-9.3c-6.4-.5-12.8-.1-19.5-.1.1 6.1.1 11.9.1 18.5zm524.3 8.8c0-11.2-.1-22.4 0-33.7.1-8.5 3.6-13.1 11.7-13.2 14-.2 28.3-.7 42.1 1.4 28.9 4.2 40.2 27 36.9 52.8-3.2 24.6-19.4 39-44.2 39.9-11 .4-22.1.2-33.1.1-8.9-.1-13.2-4.6-13.4-13.5-.1-11.3 0-22.6 0-33.8zm29.7 21.6c10.9-.2 22 2.3 28.8-8.7 4.5-7.2 4-20.8-1-27.1-7.5-9.6-17.9-6.6-27.9-7 .1 14.4.1 28.2.1 42.8zm-86.6-21.6c-.2 29.5-19.9 48.6-50.1 48.4-29.1-.2-48.4-19.7-48.3-49 .1-28.4 20.6-48.3 49.5-48 29.4.3 49.1 19.9 48.9 48.6zm-29.7.2c-.6-3.4-.8-6.8-1.8-10.1-4.1-13.2-21.6-17.7-30.9-8.1-7.9 8.2-8.5 26.5-.8 34.8a17.81 17.81 0 0 0 8 5c14.1 4.4 25-5.2 25.5-21.6zM501.9 89.3h-44.5V63.2h6c20.7 0 41.5-.1 62.2 0 5.5 0 12.5-1.6 15.2 4.8a23.49 23.49 0 0 1-1.1 21.4c-1.7 3.1-4.5 5.6-7.1 8.1-11.5 11-23.1 21.9-35.7 33.8h44.6v26.3h-68.7c-5.6 0-12.5 1.5-15.3-4.8-3.1-7.3-3-15.3 1.8-22.3a48.54 48.54 0 0 1 6.1-6.7c11.9-11.1 23.6-22.2 36.5-34.5zm98.3 0h-45c0-8.1-.1-15.8.2-23.5 0-.9 2.2-2.4 3.4-2.4 23.8-.1 47.5-.2 71.3 0 7.4.1 9.9 3.4 10.5 10.7.8 9.4-2 16.9-9.2 23.3-12 10.7-23.5 22.1-36.2 34.1h44.7v26.3h-68.7c-5.6 0-12.5 1.5-15.2-4.8-3.1-7.3-3-15.3 1.9-22.3a48.54 48.54 0 0 1 6.1-6.7c11.6-11.3 23.3-22.4 36.2-34.7zM385.7 63.2v12.5c0 13.9-.2 27.8.1 41.7.2 10.9 4.6 15.7 13.7 15.8 8.1.1 13.2-4.5 13.3-13 .3-16.4.1-32.7.2-49.1 0-7.9 0-7.9 8.2-7.9 5.5 0 11 .2 16.6-.1 3.8-.2 5.5.8 5.4 5-.2 17.1.2 34.3-.4 51.4-.8 23.7-14.3 37.5-38.1 39.1a69.18 69.18 0 0 1-19.8-1.5c-18.1-4.1-28.3-16.7-28.9-36-.6-17.9-.3-35.8-.1-53.7 0-1.4 1.9-4 3-4.1 8.7-.2 17.4-.1 26.8-.1zm377 0c9.4 0 18.3-.1 27.2.1 1.1 0 2.9 2 2.9 3 .1 30.1 0 60.1-.1 90.2 0 .1-.2.3-.6.8h-29.3c-.1-31.1-.1-62.1-.1-94.1z" transform="translate(0 -.4)" fill="#4c4c4c"/><path fill="#303435" d="M187.34 159.08l-93.67 53.03L0 159.08V53.03L93.67 0l93.67 53.03v106.05z"/><path fill="url(#87c80f1a-f7cd-4159-944f-ff0e2742f6d8)" d="M172.18 151.2l-78.51 45.14-78.51-45.14V60.91l78.51-45.15 78.51 45.15v90.29z"/><path fill="url(#e73e9ee7-b8af-4fbb-aa1d-1d18c5c2b982)" d="M141.87 136.22l-50.73 30.16-50.72-30.16V75.89l50.72-30.16 50.73 30.16v60.33z"/><path fill="#fff" opacity=".3" d="M93.46 106.27l78.72-45.36v90.29l-78.72 45.14v-90.07z"/></svg>