<?xml version="1.0" encoding="utf-8"?>
<!-- Generator: Adobe Illustrator 23.0.0, SVG Export Plug-In . SVG Version: 6.00 Build 0)  -->
<svg version="1.1" id="Layer_1" xmlns="http://www.w3.org/2000/svg" xmlns:xlink="http://www.w3.org/1999/xlink" x="0px" y="0px"
	 viewBox="0 0 422.4 134.7" style="enable-background:new 0 0 422.4 134.7;" xml:space="preserve">
<style type="text/css">
	.st0{fill:#3454D1;}
	.st1{opacity:0.54;}
	.st2{fill:#303030;}
	.st3{fill:none;}
	.st4{fill:#9A9EA6;}
	.st5{font-family:'Poppins-Medium';}
	.st6{font-size:30px;}
</style>
<title>websiteLogo</title>
<path class="st0" d="M0.1,33.7"/>
<polygon class="st0" points="59.3,0 0.2,33.5 0,101.7 38.7,122.7 38.8,49.9 24.5,57.8 24.3,101.4 11.3,94.7 11.7,40.5 59.3,13.1 "/>
<polygon class="st0" points="59.1,0 118.2,33.5 118.3,101.7 79.7,122.7 79.5,49.9 93.8,57.8 94.1,101.4 107.1,94.7 106.6,40.5 
	59.1,13.1 59.1,3 59.1,2.4 "/>
<polygon class="st0" points="59.3,28.9 44.8,37.6 44.4,126.5 59.3,134.7 "/>
<g class="st1">
	<polygon class="st0" points="59.3,28.9 73.8,37.6 74.2,126.5 59.3,134.7 	"/>
</g>
<path class="st0" d="M197.4,134.7"/>
<path class="st2" d="M166.9,31.2l13,34.7v0.4h-6.5L170,57h-14.1l-3.3,9.3h-6.3v-0.4l12.9-34.7H166.9z M157.7,52h10.6l-5.3-15.1
	L157.7,52z"/>
<path class="st2" d="M217.9,43.4c1.2,1.2,1.8,3.1,1.8,5.5v17.4h-5.9V50.9c0-0.9-0.1-1.9-0.3-2.8c-0.2-0.6-0.5-1.1-1-1.4
	c-0.6-0.3-1.3-0.5-2-0.4c-2,0.1-4,0.6-5.7,1.6c0,0.3,0,0.7,0,1v17.4h-5.9V50.9c0-0.9-0.1-1.9-0.3-2.8c-0.2-0.6-0.5-1.1-1-1.4
	c-0.6-0.3-1.3-0.5-2-0.4c-0.9,0-1.9,0.2-2.8,0.4c-1,0.3-2,0.7-2.9,1.2v18.4h-5.9V42.4l5.9-0.6v2.1c2.4-1.5,5.1-2.3,7.9-2.3
	c2.7,0,4.7,0.9,5.7,2.7c1.4-0.8,2.9-1.5,4.4-2c1.5-0.5,3.1-0.8,4.7-0.8C214.6,41.4,216.5,42.1,217.9,43.4z"/>
<path class="st2" d="M247.3,44.8c1.6,2.2,2.4,5.1,2.4,8.9c0.1,2.7-0.6,5.4-2,7.8c-1.3,1.9-3.1,3.4-5.2,4.3c-2.1,0.9-4.4,1.3-6.7,1.3
	c-1.4,0-2.8-0.1-4.2-0.3c-1.7-0.3-3.5-0.7-5.1-1.2V29l5.9-0.6v15.4c2.3-1.4,5-2.2,7.8-2.3C243.3,41.6,245.7,42.6,247.3,44.8z
	 M241.4,60.3c1.5-1.4,2.2-3.6,2.2-6.7c0.1-1.9-0.3-3.9-1.3-5.5c-0.9-1.3-2.4-1.9-4-1.8c-2.1,0.1-4.1,0.6-5.9,1.6v14.3
	c1,0.2,2.1,0.3,3.2,0.3C237.8,62.6,239.9,61.8,241.4,60.3L241.4,60.3z"/>
<path class="st0" d="M276.8,31.2v5.3h-11.6v29.8H259V36.5h-11.8v-5.3H276.8z"/>
<path class="st0" d="M295.8,55.5h-16.1c0,1.9,0.7,3.8,2,5.3c1.2,1.1,2.9,1.7,4.5,1.7c1.2,0,2.4-0.2,3.5-0.5c1.2-0.4,2.4-1,3.6-1.7
	l2.1,3.8c-1.3,0.9-2.8,1.7-4.4,2.2c-1.7,0.6-3.5,0.8-5.2,0.8c-2.1,0-4.2-0.4-6.1-1.3c-1.8-0.8-3.3-2.2-4.3-4
	c-1.1-2.2-1.7-4.7-1.6-7.1c0-2.3,0.4-4.6,1.4-6.7c0.8-1.9,2.2-3.5,4-4.6c1.9-1.2,4.1-1.7,6.4-1.7c2-0.1,3.9,0.4,5.7,1.3
	c1.5,0.8,2.7,2.1,3.5,3.7c0.8,1.6,1.2,3.5,1.2,5.3C296,53,295.9,54.2,295.8,55.5z M281.8,47.2c-1,1.2-1.7,2.6-1.9,4.2h10.2v-0.2
	c0.1-1.5-0.3-3-1.3-4.1c-0.9-0.9-2.1-1.4-3.4-1.3C284.1,45.7,282.8,46.2,281.8,47.2L281.8,47.2z"/>
<path class="st0" d="M321.1,43.4c1.3,1.2,1.9,3.1,1.9,5.7v17.3h-5.9V50.9c0-0.9-0.1-1.9-0.4-2.8c-0.2-0.6-0.6-1.1-1.2-1.4
	c-0.7-0.3-1.5-0.5-2.3-0.4c-2.1,0.1-4.2,0.7-6.1,1.7v18.4h-5.9V42.4l5.9-0.6v2.3c2.5-1.6,5.5-2.5,8.5-2.5
	C317.6,41.4,319.6,42.1,321.1,43.4z"/>
<path class="st0" d="M351.2,28.4v37.9h-5.1l-0.4-1.8c-2.2,1.5-4.8,2.4-7.5,2.5c-2.8,0.2-5.6-1-7.5-3.2c-1.7-2.1-2.6-5.1-2.6-9
	c-0.1-2.6,0.5-5.1,1.7-7.4c1-1.9,2.6-3.5,4.5-4.5c1.9-1,4.1-1.5,6.2-1.5c1.6,0,3.2,0.3,4.8,0.7V29L351.2,28.4z M339.7,62.4
	c2-0.1,4-0.7,5.7-1.7v-14c-1.3-0.4-2.7-0.7-4.1-0.6c-1.3,0-2.6,0.3-3.7,1c-1.1,0.7-2,1.8-2.5,3c-0.6,1.6-1,3.2-0.9,4.9
	C334.2,59.9,336,62.4,339.7,62.4z"/>
<path class="st0" d="M378.6,55.5h-16.1c0,1.9,0.7,3.8,2,5.3c1.2,1.1,2.9,1.7,4.5,1.7c1.2,0,2.4-0.2,3.5-0.5c1.2-0.4,2.4-1,3.6-1.7
	l2.1,3.8c-1.3,0.9-2.8,1.7-4.4,2.2c-1.7,0.6-3.5,0.8-5.2,0.8c-2.1,0-4.2-0.4-6.1-1.3c-1.8-0.8-3.3-2.2-4.3-4
	c-1.1-2.2-1.7-4.7-1.6-7.1c0-2.3,0.4-4.6,1.4-6.7c0.8-1.9,2.2-3.5,4-4.6c1.9-1.2,4.1-1.7,6.4-1.7c2-0.1,3.9,0.4,5.7,1.3
	c1.5,0.8,2.7,2.1,3.5,3.7c0.8,1.6,1.2,3.5,1.2,5.3C378.7,53,378.7,54.2,378.6,55.5z M364.6,47.2c-1,1.2-1.7,2.6-1.9,4.2h10.2v-0.2
	c0.1-1.5-0.3-3-1.3-4.1c-0.9-0.9-2.1-1.4-3.4-1.3C366.9,45.7,365.5,46.2,364.6,47.2z"/>
<path class="st0" d="M399.9,42l-1,6c-0.5-0.2-1.1-0.4-1.6-0.5c-0.6-0.1-1.1-0.2-1.7-0.2c-1,0-2,0.2-3,0.7c-1.1,0.6-2.1,1.6-2.7,2.6
	v15.6h-5.9v-24l5.9-0.5v3.4c0.8-1.1,1.8-2.1,3.1-2.7c1.2-0.6,2.5-0.9,3.8-0.9C397.8,41.6,398.9,41.7,399.9,42z"/>
<path class="st0" d="M406.4,66.2c-1.8-0.5-3.4-1.4-4.9-2.4l2.5-4c2.4,1.8,5.2,2.7,8.2,2.8c1.1,0.1,2.2-0.2,3.2-0.7
	c1.1-0.7,1.5-2.1,0.8-3.2c0,0,0-0.1-0.1-0.1c-0.4-0.5-0.9-0.9-1.5-1.1c-1-0.5-2-0.8-3.1-1.1l-1.6-0.4c-2.1-0.4-4-1.4-5.6-2.7
	c-1.2-1.2-1.8-2.8-1.7-4.4c0-1.3,0.4-2.7,1.2-3.7c0.9-1.1,2-2,3.3-2.5c1.5-0.6,3.2-0.9,4.9-0.9c3.4,0,6.7,0.9,9.6,2.7l-2.3,3.9
	c-1.2-0.7-2.5-1.2-3.9-1.6c-1.1-0.3-2.2-0.4-3.4-0.4c-0.9-0.1-1.8,0.2-2.6,0.6c-0.6,0.4-0.9,1-0.9,1.7c0,0.4,0.1,0.8,0.3,1.1
	c0.3,0.4,0.7,0.7,1.1,0.8c0.8,0.3,1.5,0.6,2.4,0.7l1.8,0.4c2.4,0.5,4.6,1.5,6.4,3.1c1.3,1.2,2.1,3,2,4.8c0,1.4-0.4,2.8-1.1,4
	c-0.8,1.2-2,2.2-3.4,2.7c-1.8,0.7-3.6,1.1-5.5,1C410.3,67.1,408.3,66.8,406.4,66.2z"/>
<rect x="151.8" y="76.9" class="st3" width="300.3" height="48"/>
<text transform="matrix(1 0 0 1 151.8058 99.0966)" class="st4 st5 st6">Build Your Dream</text>
</svg>
